<svg id="Слой_1" data-name="Слой 1" xmlns="http://www.w3.org/2000/svg" viewBox="0 0 126.28 52.75"><defs><style>.cls-1{fill:#181818;}</style></defs><title>Group 2</title><path class="cls-1" d="M129.5,47H106V13.39h6.73V40.27h16.8Zm-27,0H78.92V13.39h6.73V40.27h16.8ZM72.66,47H65.94V13.39h6.72ZM41.35,47H34.62V13.39H48.08a12.75,12.75,0,0,1,3.56.49,13.11,13.11,0,0,1,3.19,1.36,12.89,12.89,0,0,1,2.72,2.11,12.64,12.64,0,0,1,2.11,2.72A13.42,13.42,0,0,1,61,23.28a13.13,13.13,0,0,1,.49,3.56,12.75,12.75,0,0,1-.45,3.38,13.11,13.11,0,0,1-1.24,3.12,12.68,12.68,0,0,1-2,2.71,13.28,13.28,0,0,1-2.62,2.16L59,47H51.8l-2.92-6.77-7.53,0Zm0-26.88V33.57h6.73a6.49,6.49,0,0,0,2.6-.52,6.82,6.82,0,0,0,2.13-1.45,6.6,6.6,0,0,0,1.43-2.13,6.52,6.52,0,0,0,.54-2.63,6.34,6.34,0,0,0-.54-2.6,6.48,6.48,0,0,0-1.43-2.15,6.6,6.6,0,0,0-2.13-1.43,6.34,6.34,0,0,0-2.6-.54ZM23.42,30.2a9.55,9.55,0,0,0-.8-3.92,9.71,9.71,0,0,0-2.15-3.19,10.25,10.25,0,0,0-3.21-2.18,9.74,9.74,0,0,0-3.92-.79H10V40.27h3.35a9.9,9.9,0,0,0,3.92-.77,10.19,10.19,0,0,0,3.21-2.16,9.9,9.9,0,0,0,2.15-3.21A9.66,9.66,0,0,0,23.42,30.2Zm6.73,0a16.88,16.88,0,0,1-2.3,8.48,17.92,17.92,0,0,1-2.62,3.4,17,17,0,0,1-3.4,2.62A16.5,16.5,0,0,1,13.34,47H3.22V13.39H13.34A16,16,0,0,1,17.8,14a16.3,16.3,0,0,1,4,1.69,16.12,16.12,0,0,1,3.4,2.65,16.68,16.68,0,0,1,2.62,3.39,15.85,15.85,0,0,1,1.69,4A16,16,0,0,1,30.15,30.2Z" transform="translate(-3.22 -13.39)"/><path class="cls-1" d="M119.56,66V58.19h-1.83V57h1.83V53.78h1.35V57H123v1.19h-2.07V66Zm-19.4-7.92a3,3,0,0,0-2.09.77,3.28,3.28,0,0,0-1,1.93h6.12a3.22,3.22,0,0,0-1-1.93A3,3,0,0,0,100.16,58.08Zm.11,6.84a2.72,2.72,0,0,0,2.61-1.51h1.48a4.41,4.41,0,0,1-1.5,2,4.25,4.25,0,0,1-2.61.75,4.36,4.36,0,0,1-3.31-1.35A4.58,4.58,0,0,1,95.7,61.5a4.64,4.64,0,0,1,1.19-3.29,4.65,4.65,0,0,1,6.55,0,4.68,4.68,0,0,1,1.19,3.29V62H97.08a3.3,3.3,0,0,0,1,2.05A3.07,3.07,0,0,0,100.27,64.92Zm-21-4.37L83.1,66H81.45L78.3,61.48l-1.69,1.68V66H75.26V53.4h1.35v8.06L80.94,57h1.89ZM61.38,56.86v1.35h-.16a2.87,2.87,0,0,0-2.37,1.17A4.19,4.19,0,0,0,58,62v4H56.63V57H58v2.21a3.38,3.38,0,0,1,3.31-2.35Zm-23.9,8.06a2.87,2.87,0,0,0,2.31-1,4,4,0,0,0,0-4.82,2.87,2.87,0,0,0-2.31-1,3,3,0,0,0-2.34,1,3.88,3.88,0,0,0,0,4.82A3,3,0,0,0,37.48,64.92Zm3.05-.36a3.64,3.64,0,0,1-3.23,1.58,4.06,4.06,0,0,1-3.16-1.35,5.14,5.14,0,0,1,0-6.58,4.17,4.17,0,0,1,3.25-1.35,3.58,3.58,0,0,1,3.14,1.6V57h1.35v9H40.53ZM6.81,58.37a3,3,0,0,1,2.74-1.51,3,3,0,0,1,1.65.48,3.19,3.19,0,0,1,1.21,1.33,3.5,3.5,0,0,1,1.91-1.62,3.26,3.26,0,0,1,1.17-.19,3,3,0,0,1,1.26.27,3.23,3.23,0,0,1,1.08.73,3.81,3.81,0,0,1,1,2.7V66H17.48V60.6a2.7,2.7,0,0,0-.63-1.84,2.09,2.09,0,0,0-1.6-.68,2.35,2.35,0,0,0-1.71.67,2.45,2.45,0,0,0-.72,1.87V66H11.47V60.6a2.7,2.7,0,0,0-.63-1.84,2.09,2.09,0,0,0-1.6-.68,2.35,2.35,0,0,0-1.71.67,2.45,2.45,0,0,0-.72,1.87V66H5.46V57H6.81Z" transform="translate(-3.22 -13.39)"/></svg>